<mxfile host="app.diagrams.net" modified="2023-07-18T02:37:08.673Z" agent="Mozilla/5.0 (Windows NT 10.0; Win64; x64) AppleWebKit/537.36 (KHTML, like Gecko) Chrome/114.0.0.0 Safari/537.36" etag="qVgh28A8IAz3RjHtvhEX" version="21.6.2" type="device">
  <diagram id="C5RBs43oDa-KdzZeNtuy" name="Page-1">
    <mxGraphModel dx="2647" dy="1270" grid="1" gridSize="10" guides="1" tooltips="1" connect="1" arrows="1" fold="1" page="1" pageScale="1" pageWidth="827" pageHeight="1169" math="0" shadow="0">
      <root>
        <mxCell id="WIyWlLk6GJQsqaUBKTNV-0" />
        <mxCell id="WIyWlLk6GJQsqaUBKTNV-1" parent="WIyWlLk6GJQsqaUBKTNV-0" />
        <mxCell id="WIyWlLk6GJQsqaUBKTNV-3" value="Enter Origin and Destination Address&lt;br&gt;[ Get Directions]" style="rounded=1;whiteSpace=wrap;html=1;fontSize=12;glass=0;strokeWidth=1;shadow=0;" parent="WIyWlLk6GJQsqaUBKTNV-1" vertex="1">
          <mxGeometry x="160" y="40" width="120" height="80" as="geometry" />
        </mxCell>
        <mxCell id="skTghVtH1FrDGDIoebCN-20" style="edgeStyle=orthogonalEdgeStyle;rounded=0;orthogonalLoop=1;jettySize=auto;html=1;" edge="1" parent="WIyWlLk6GJQsqaUBKTNV-1" source="skTghVtH1FrDGDIoebCN-0" target="skTghVtH1FrDGDIoebCN-4">
          <mxGeometry relative="1" as="geometry" />
        </mxCell>
        <mxCell id="skTghVtH1FrDGDIoebCN-0" value="Backend&lt;br&gt;Server" style="rounded=1;whiteSpace=wrap;html=1;" vertex="1" parent="WIyWlLk6GJQsqaUBKTNV-1">
          <mxGeometry x="160" y="210" width="120" height="70" as="geometry" />
        </mxCell>
        <mxCell id="skTghVtH1FrDGDIoebCN-1" value="Frontend Communications" style="text;html=1;align=center;verticalAlign=middle;resizable=0;points=[];autosize=1;strokeColor=none;fillColor=none;" vertex="1" parent="WIyWlLk6GJQsqaUBKTNV-1">
          <mxGeometry x="140" y="170" width="160" height="30" as="geometry" />
        </mxCell>
        <mxCell id="skTghVtH1FrDGDIoebCN-3" value="Endpoint&lt;br&gt;Routing" style="rounded=1;whiteSpace=wrap;html=1;" vertex="1" parent="WIyWlLk6GJQsqaUBKTNV-1">
          <mxGeometry x="160" y="360" width="120" height="70" as="geometry" />
        </mxCell>
        <mxCell id="skTghVtH1FrDGDIoebCN-4" value="Backend Communications" style="text;html=1;align=center;verticalAlign=middle;resizable=0;points=[];autosize=1;strokeColor=none;fillColor=none;" vertex="1" parent="WIyWlLk6GJQsqaUBKTNV-1">
          <mxGeometry x="140" y="340" width="160" height="30" as="geometry" />
        </mxCell>
        <mxCell id="skTghVtH1FrDGDIoebCN-6" value="" style="endArrow=classic;html=1;rounded=0;exitX=0.5;exitY=1;exitDx=0;exitDy=0;entryX=0.5;entryY=0.022;entryDx=0;entryDy=0;entryPerimeter=0;" edge="1" parent="WIyWlLk6GJQsqaUBKTNV-1" source="skTghVtH1FrDGDIoebCN-0" target="skTghVtH1FrDGDIoebCN-4">
          <mxGeometry width="50" height="50" relative="1" as="geometry">
            <mxPoint x="220" y="290" as="sourcePoint" />
            <mxPoint x="220" y="300" as="targetPoint" />
          </mxGeometry>
        </mxCell>
        <mxCell id="skTghVtH1FrDGDIoebCN-9" value="" style="endArrow=classic;html=1;rounded=0;" edge="1" parent="WIyWlLk6GJQsqaUBKTNV-1" source="skTghVtH1FrDGDIoebCN-3">
          <mxGeometry width="50" height="50" relative="1" as="geometry">
            <mxPoint x="219.5" y="420" as="sourcePoint" />
            <mxPoint x="220" y="470" as="targetPoint" />
          </mxGeometry>
        </mxCell>
        <mxCell id="skTghVtH1FrDGDIoebCN-11" value="Check Database" style="rhombus;whiteSpace=wrap;html=1;" vertex="1" parent="WIyWlLk6GJQsqaUBKTNV-1">
          <mxGeometry x="154.5" y="480" width="131" height="135" as="geometry" />
        </mxCell>
        <mxCell id="skTghVtH1FrDGDIoebCN-15" value="" style="endArrow=classic;html=1;rounded=0;exitX=0.5;exitY=1;exitDx=0;exitDy=0;" edge="1" parent="WIyWlLk6GJQsqaUBKTNV-1" source="WIyWlLk6GJQsqaUBKTNV-3">
          <mxGeometry width="50" height="50" relative="1" as="geometry">
            <mxPoint x="380" y="220" as="sourcePoint" />
            <mxPoint x="220" y="160" as="targetPoint" />
          </mxGeometry>
        </mxCell>
        <mxCell id="skTghVtH1FrDGDIoebCN-23" value="" style="endArrow=classic;html=1;rounded=0;" edge="1" parent="WIyWlLk6GJQsqaUBKTNV-1">
          <mxGeometry width="50" height="50" relative="1" as="geometry">
            <mxPoint x="290" y="550" as="sourcePoint" />
            <mxPoint x="350" y="550" as="targetPoint" />
          </mxGeometry>
        </mxCell>
        <mxCell id="skTghVtH1FrDGDIoebCN-24" value="" style="endArrow=classic;html=1;rounded=0;" edge="1" parent="WIyWlLk6GJQsqaUBKTNV-1">
          <mxGeometry width="50" height="50" relative="1" as="geometry">
            <mxPoint x="220" y="620" as="sourcePoint" />
            <mxPoint x="220" y="670" as="targetPoint" />
          </mxGeometry>
        </mxCell>
        <mxCell id="skTghVtH1FrDGDIoebCN-25" value="Yes" style="text;html=1;strokeColor=none;fillColor=none;align=center;verticalAlign=middle;whiteSpace=wrap;rounded=0;" vertex="1" parent="WIyWlLk6GJQsqaUBKTNV-1">
          <mxGeometry x="280" y="520" width="60" height="30" as="geometry" />
        </mxCell>
        <mxCell id="skTghVtH1FrDGDIoebCN-26" value="No" style="text;html=1;strokeColor=none;fillColor=none;align=center;verticalAlign=middle;whiteSpace=wrap;rounded=0;" vertex="1" parent="WIyWlLk6GJQsqaUBKTNV-1">
          <mxGeometry x="225.5" y="640" width="60" height="30" as="geometry" />
        </mxCell>
        <mxCell id="skTghVtH1FrDGDIoebCN-27" value="Google&lt;br&gt;Maps API" style="rounded=1;whiteSpace=wrap;html=1;" vertex="1" parent="WIyWlLk6GJQsqaUBKTNV-1">
          <mxGeometry x="160" y="720" width="120" height="70" as="geometry" />
        </mxCell>
        <mxCell id="skTghVtH1FrDGDIoebCN-28" value="External API Communcation" style="text;html=1;align=center;verticalAlign=middle;resizable=0;points=[];autosize=1;strokeColor=none;fillColor=none;" vertex="1" parent="WIyWlLk6GJQsqaUBKTNV-1">
          <mxGeometry x="140" y="680" width="170" height="30" as="geometry" />
        </mxCell>
        <mxCell id="skTghVtH1FrDGDIoebCN-29" value="Database Interaction" style="text;html=1;align=center;verticalAlign=middle;resizable=0;points=[];autosize=1;strokeColor=none;fillColor=none;" vertex="1" parent="WIyWlLk6GJQsqaUBKTNV-1">
          <mxGeometry x="350" y="680" width="130" height="30" as="geometry" />
        </mxCell>
        <mxCell id="skTghVtH1FrDGDIoebCN-30" value="Store Data in MongoDB" style="rounded=1;whiteSpace=wrap;html=1;" vertex="1" parent="WIyWlLk6GJQsqaUBKTNV-1">
          <mxGeometry x="354" y="720" width="120" height="70" as="geometry" />
        </mxCell>
        <mxCell id="skTghVtH1FrDGDIoebCN-32" value="" style="endArrow=classic;html=1;rounded=0;exitX=1;exitY=0.5;exitDx=0;exitDy=0;" edge="1" parent="WIyWlLk6GJQsqaUBKTNV-1" source="skTghVtH1FrDGDIoebCN-27">
          <mxGeometry width="50" height="50" relative="1" as="geometry">
            <mxPoint x="380" y="750" as="sourcePoint" />
            <mxPoint x="350" y="755" as="targetPoint" />
          </mxGeometry>
        </mxCell>
        <mxCell id="skTghVtH1FrDGDIoebCN-35" value="Send Response" style="rounded=1;whiteSpace=wrap;html=1;" vertex="1" parent="WIyWlLk6GJQsqaUBKTNV-1">
          <mxGeometry x="560" y="630" width="120" height="70" as="geometry" />
        </mxCell>
        <mxCell id="skTghVtH1FrDGDIoebCN-37" value="Database Interaction" style="text;html=1;align=center;verticalAlign=middle;resizable=0;points=[];autosize=1;strokeColor=none;fillColor=none;" vertex="1" parent="WIyWlLk6GJQsqaUBKTNV-1">
          <mxGeometry x="555" y="600" width="130" height="30" as="geometry" />
        </mxCell>
        <mxCell id="skTghVtH1FrDGDIoebCN-38" value="" style="endArrow=classic;html=1;rounded=0;exitX=1;exitY=0.5;exitDx=0;exitDy=0;" edge="1" parent="WIyWlLk6GJQsqaUBKTNV-1" source="skTghVtH1FrDGDIoebCN-30">
          <mxGeometry width="50" height="50" relative="1" as="geometry">
            <mxPoint x="370" y="660" as="sourcePoint" />
            <mxPoint x="550" y="680" as="targetPoint" />
          </mxGeometry>
        </mxCell>
        <mxCell id="skTghVtH1FrDGDIoebCN-39" value="Database Interaction" style="text;html=1;align=center;verticalAlign=middle;resizable=0;points=[];autosize=1;strokeColor=none;fillColor=none;" vertex="1" parent="WIyWlLk6GJQsqaUBKTNV-1">
          <mxGeometry x="349" y="490" width="130" height="30" as="geometry" />
        </mxCell>
        <mxCell id="skTghVtH1FrDGDIoebCN-40" value="Retrive Data from MongoDB" style="rounded=1;whiteSpace=wrap;html=1;" vertex="1" parent="WIyWlLk6GJQsqaUBKTNV-1">
          <mxGeometry x="359" y="540" width="120" height="70" as="geometry" />
        </mxCell>
        <mxCell id="skTghVtH1FrDGDIoebCN-41" value="" style="endArrow=classic;html=1;rounded=0;exitX=1;exitY=0.5;exitDx=0;exitDy=0;" edge="1" parent="WIyWlLk6GJQsqaUBKTNV-1" source="skTghVtH1FrDGDIoebCN-40">
          <mxGeometry width="50" height="50" relative="1" as="geometry">
            <mxPoint x="555" y="570" as="sourcePoint" />
            <mxPoint x="540" y="630" as="targetPoint" />
          </mxGeometry>
        </mxCell>
        <mxCell id="skTghVtH1FrDGDIoebCN-42" value="Render Route Cards&lt;br&gt;Render Directions Cards" style="rounded=1;whiteSpace=wrap;html=1;" vertex="1" parent="WIyWlLk6GJQsqaUBKTNV-1">
          <mxGeometry x="770" y="630" width="120" height="70" as="geometry" />
        </mxCell>
        <mxCell id="skTghVtH1FrDGDIoebCN-43" value="Frontend Rendering" style="text;html=1;align=center;verticalAlign=middle;resizable=0;points=[];autosize=1;strokeColor=none;fillColor=none;" vertex="1" parent="WIyWlLk6GJQsqaUBKTNV-1">
          <mxGeometry x="765" y="600" width="130" height="30" as="geometry" />
        </mxCell>
        <mxCell id="skTghVtH1FrDGDIoebCN-45" value="" style="endArrow=classic;html=1;rounded=0;" edge="1" parent="WIyWlLk6GJQsqaUBKTNV-1">
          <mxGeometry width="50" height="50" relative="1" as="geometry">
            <mxPoint x="680" y="665" as="sourcePoint" />
            <mxPoint x="760" y="665" as="targetPoint" />
          </mxGeometry>
        </mxCell>
        <mxCell id="skTghVtH1FrDGDIoebCN-46" value="Select Route&lt;br&gt;Get Route Details" style="rounded=1;whiteSpace=wrap;html=1;" vertex="1" parent="WIyWlLk6GJQsqaUBKTNV-1">
          <mxGeometry x="960" y="630" width="120" height="70" as="geometry" />
        </mxCell>
        <mxCell id="skTghVtH1FrDGDIoebCN-47" value="User Interaction (Route Selection)" style="text;html=1;align=center;verticalAlign=middle;resizable=0;points=[];autosize=1;strokeColor=none;fillColor=none;" vertex="1" parent="WIyWlLk6GJQsqaUBKTNV-1">
          <mxGeometry x="930" y="600" width="200" height="30" as="geometry" />
        </mxCell>
        <mxCell id="skTghVtH1FrDGDIoebCN-48" value="" style="endArrow=classic;html=1;rounded=0;exitX=1;exitY=0.5;exitDx=0;exitDy=0;entryX=0;entryY=0.5;entryDx=0;entryDy=0;" edge="1" parent="WIyWlLk6GJQsqaUBKTNV-1" source="skTghVtH1FrDGDIoebCN-42" target="skTghVtH1FrDGDIoebCN-46">
          <mxGeometry width="50" height="50" relative="1" as="geometry">
            <mxPoint x="840" y="680" as="sourcePoint" />
            <mxPoint x="890" y="630" as="targetPoint" />
          </mxGeometry>
        </mxCell>
        <mxCell id="skTghVtH1FrDGDIoebCN-54" value="Backend Processing (Route Details)" style="text;html=1;align=center;verticalAlign=middle;resizable=0;points=[];autosize=1;strokeColor=none;fillColor=none;" vertex="1" parent="WIyWlLk6GJQsqaUBKTNV-1">
          <mxGeometry x="1120" y="600" width="220" height="30" as="geometry" />
        </mxCell>
        <mxCell id="skTghVtH1FrDGDIoebCN-55" value="Retrieve &lt;br&gt;Data" style="rounded=1;whiteSpace=wrap;html=1;" vertex="1" parent="WIyWlLk6GJQsqaUBKTNV-1">
          <mxGeometry x="1160" y="630" width="120" height="70" as="geometry" />
        </mxCell>
        <mxCell id="skTghVtH1FrDGDIoebCN-56" value="" style="endArrow=classic;html=1;rounded=0;exitX=1;exitY=0.5;exitDx=0;exitDy=0;" edge="1" parent="WIyWlLk6GJQsqaUBKTNV-1" source="skTghVtH1FrDGDIoebCN-46" target="skTghVtH1FrDGDIoebCN-55">
          <mxGeometry width="50" height="50" relative="1" as="geometry">
            <mxPoint x="950" y="640" as="sourcePoint" />
            <mxPoint x="1000" y="590" as="targetPoint" />
          </mxGeometry>
        </mxCell>
        <mxCell id="skTghVtH1FrDGDIoebCN-57" value="" style="endArrow=classic;html=1;rounded=0;" edge="1" parent="WIyWlLk6GJQsqaUBKTNV-1">
          <mxGeometry width="50" height="50" relative="1" as="geometry">
            <mxPoint x="1280" y="660" as="sourcePoint" />
            <mxPoint x="1370" y="660" as="targetPoint" />
          </mxGeometry>
        </mxCell>
        <mxCell id="skTghVtH1FrDGDIoebCN-58" value="Render Detailed Directions" style="rounded=1;whiteSpace=wrap;html=1;" vertex="1" parent="WIyWlLk6GJQsqaUBKTNV-1">
          <mxGeometry x="1370" y="630" width="120" height="70" as="geometry" />
        </mxCell>
        <mxCell id="skTghVtH1FrDGDIoebCN-59" value="Frontend Rendering&amp;nbsp; (Route Details)" style="text;html=1;align=center;verticalAlign=middle;resizable=0;points=[];autosize=1;strokeColor=none;fillColor=none;" vertex="1" parent="WIyWlLk6GJQsqaUBKTNV-1">
          <mxGeometry x="1350" y="600" width="220" height="30" as="geometry" />
        </mxCell>
      </root>
    </mxGraphModel>
  </diagram>
</mxfile>
